<mxfile host="app.diagrams.net" modified="2024-04-01T02:51:39.567Z" agent="Mozilla/5.0 (Windows NT 10.0; Win64; x64) AppleWebKit/537.36 (KHTML, like Gecko) Chrome/123.0.0.0 Safari/537.36" etag="z50APX5TTF5YpNxZ6bWf" version="24.1.0" type="github" pages="7">
  <diagram id="C5RBs43oDa-KdzZeNtuy" name="Page-1">
    <mxGraphModel dx="1583" dy="410" grid="1" gridSize="10" guides="1" tooltips="1" connect="1" arrows="1" fold="1" page="1" pageScale="1" pageWidth="827" pageHeight="1169" math="0" shadow="0">
      <root>
        <mxCell id="WIyWlLk6GJQsqaUBKTNV-0" />
        <mxCell id="WIyWlLk6GJQsqaUBKTNV-1" parent="WIyWlLk6GJQsqaUBKTNV-0" />
        <mxCell id="WIyWlLk6GJQsqaUBKTNV-2" value="" style="rounded=0;html=1;jettySize=auto;orthogonalLoop=1;fontSize=11;endArrow=block;endFill=0;endSize=8;strokeWidth=1;shadow=0;labelBackgroundColor=none;edgeStyle=orthogonalEdgeStyle;" parent="WIyWlLk6GJQsqaUBKTNV-1" source="WIyWlLk6GJQsqaUBKTNV-3" target="WIyWlLk6GJQsqaUBKTNV-6" edge="1">
          <mxGeometry relative="1" as="geometry" />
        </mxCell>
        <mxCell id="WIyWlLk6GJQsqaUBKTNV-3" value="Usuário faz a pergunta" style="rounded=1;whiteSpace=wrap;html=1;fontSize=12;glass=0;strokeWidth=1;shadow=0;" parent="WIyWlLk6GJQsqaUBKTNV-1" vertex="1">
          <mxGeometry x="145" y="70" width="130" height="50" as="geometry" />
        </mxCell>
        <mxCell id="WIyWlLk6GJQsqaUBKTNV-4" value="Yes" style="rounded=0;html=1;jettySize=auto;orthogonalLoop=1;fontSize=11;endArrow=block;endFill=0;endSize=8;strokeWidth=1;shadow=0;labelBackgroundColor=none;edgeStyle=orthogonalEdgeStyle;" parent="WIyWlLk6GJQsqaUBKTNV-1" source="WIyWlLk6GJQsqaUBKTNV-6" edge="1">
          <mxGeometry y="20" relative="1" as="geometry">
            <mxPoint as="offset" />
            <mxPoint x="210" y="290" as="targetPoint" />
          </mxGeometry>
        </mxCell>
        <mxCell id="WIyWlLk6GJQsqaUBKTNV-5" value="No" style="edgeStyle=orthogonalEdgeStyle;rounded=0;html=1;jettySize=auto;orthogonalLoop=1;fontSize=11;endArrow=block;endFill=0;endSize=8;strokeWidth=1;shadow=0;labelBackgroundColor=none;" parent="WIyWlLk6GJQsqaUBKTNV-1" source="WIyWlLk6GJQsqaUBKTNV-6" target="WIyWlLk6GJQsqaUBKTNV-7" edge="1">
          <mxGeometry y="10" relative="1" as="geometry">
            <mxPoint as="offset" />
          </mxGeometry>
        </mxCell>
        <mxCell id="WIyWlLk6GJQsqaUBKTNV-6" value="&lt;font style=&quot;font-size: 9px;&quot;&gt;é sobre hardware,periféricos?&lt;/font&gt;" style="rhombus;whiteSpace=wrap;html=1;shadow=0;fontFamily=Helvetica;fontSize=12;align=center;strokeWidth=1;spacing=6;spacingTop=-4;" parent="WIyWlLk6GJQsqaUBKTNV-1" vertex="1">
          <mxGeometry x="150" y="170" width="120" height="100" as="geometry" />
        </mxCell>
        <mxCell id="rWPLAtUykr7Pa8zy8E_a-1" style="edgeStyle=orthogonalEdgeStyle;rounded=0;orthogonalLoop=1;jettySize=auto;html=1;" edge="1" parent="WIyWlLk6GJQsqaUBKTNV-1">
          <mxGeometry relative="1" as="geometry">
            <mxPoint x="-50" y="210" as="sourcePoint" />
            <mxPoint x="365" y="355" as="targetPoint" />
            <Array as="points">
              <mxPoint x="-100" y="210" />
              <mxPoint x="-100" y="450" />
              <mxPoint x="365" y="450" />
            </Array>
          </mxGeometry>
        </mxCell>
        <mxCell id="WIyWlLk6GJQsqaUBKTNV-7" value="Sistema&amp;nbsp;&lt;div&gt;Mostrar na tela que não faz parte de um assunto da aplicação&lt;/div&gt;" style="rounded=1;whiteSpace=wrap;html=1;fontSize=12;glass=0;strokeWidth=1;shadow=0;" parent="WIyWlLk6GJQsqaUBKTNV-1" vertex="1">
          <mxGeometry x="-50" y="190" width="140" height="60" as="geometry" />
        </mxCell>
        <mxCell id="Tt4OT2OxMhaHClZCn3VR-41" style="edgeStyle=orthogonalEdgeStyle;rounded=0;orthogonalLoop=1;jettySize=auto;html=1;entryX=0.5;entryY=0;entryDx=0;entryDy=0;" parent="WIyWlLk6GJQsqaUBKTNV-1" source="Tt4OT2OxMhaHClZCn3VR-37" target="WIyWlLk6GJQsqaUBKTNV-3" edge="1">
          <mxGeometry relative="1" as="geometry" />
        </mxCell>
        <mxCell id="Tt4OT2OxMhaHClZCn3VR-37" value="" style="ellipse;shape=doubleEllipse;whiteSpace=wrap;html=1;aspect=fixed;fillColor=#000000;" parent="WIyWlLk6GJQsqaUBKTNV-1" vertex="1">
          <mxGeometry x="192.25" width="35.5" height="35.5" as="geometry" />
        </mxCell>
        <mxCell id="Tt4OT2OxMhaHClZCn3VR-39" value="" style="group" parent="WIyWlLk6GJQsqaUBKTNV-1" vertex="1" connectable="0">
          <mxGeometry x="340" y="315" width="50" height="50" as="geometry" />
        </mxCell>
        <mxCell id="Tt4OT2OxMhaHClZCn3VR-34" value="" style="ellipse;shape=doubleEllipse;whiteSpace=wrap;html=1;aspect=fixed;fillColor=#000000;" parent="Tt4OT2OxMhaHClZCn3VR-39" vertex="1">
          <mxGeometry x="2.513966480446927" y="2.513966480446927" width="44.6927374301676" height="44.6927374301676" as="geometry" />
        </mxCell>
        <mxCell id="Tt4OT2OxMhaHClZCn3VR-36" value="" style="ellipse;shape=doubleEllipse;whiteSpace=wrap;html=1;aspect=fixed;fillColor=none;" parent="Tt4OT2OxMhaHClZCn3VR-39" vertex="1">
          <mxGeometry width="50" height="50" as="geometry" />
        </mxCell>
        <mxCell id="rWPLAtUykr7Pa8zy8E_a-4" style="edgeStyle=orthogonalEdgeStyle;rounded=0;orthogonalLoop=1;jettySize=auto;html=1;" edge="1" parent="WIyWlLk6GJQsqaUBKTNV-1" source="rWPLAtUykr7Pa8zy8E_a-3" target="Tt4OT2OxMhaHClZCn3VR-36">
          <mxGeometry relative="1" as="geometry" />
        </mxCell>
        <mxCell id="rWPLAtUykr7Pa8zy8E_a-3" value="Sistema&amp;nbsp;&lt;div&gt;Mostrar na tela resultado&lt;/div&gt;&lt;div&gt;&lt;br&gt;&lt;/div&gt;" style="rounded=1;whiteSpace=wrap;html=1;fontSize=12;glass=0;strokeWidth=1;shadow=0;" vertex="1" parent="WIyWlLk6GJQsqaUBKTNV-1">
          <mxGeometry x="135" y="290" width="140" height="60" as="geometry" />
        </mxCell>
      </root>
    </mxGraphModel>
  </diagram>
  <diagram id="mbi73ga-t54qOzD1dZGw" name="Página-2">
    <mxGraphModel dx="1716" dy="482" grid="1" gridSize="10" guides="1" tooltips="1" connect="1" arrows="1" fold="1" page="1" pageScale="1" pageWidth="827" pageHeight="1169" math="0" shadow="0">
      <root>
        <mxCell id="0" />
        <mxCell id="1" parent="0" />
        <mxCell id="EoDWGlJwhHmFgsUzuVPC-1" value="" style="rounded=0;html=1;jettySize=auto;orthogonalLoop=1;fontSize=11;endArrow=block;endFill=0;endSize=8;strokeWidth=1;shadow=0;labelBackgroundColor=none;edgeStyle=orthogonalEdgeStyle;" parent="1" source="EoDWGlJwhHmFgsUzuVPC-2" target="EoDWGlJwhHmFgsUzuVPC-5" edge="1">
          <mxGeometry relative="1" as="geometry" />
        </mxCell>
        <mxCell id="EoDWGlJwhHmFgsUzuVPC-2" value="sistema exibe aula" style="rounded=1;whiteSpace=wrap;html=1;fontSize=12;glass=0;strokeWidth=1;shadow=0;" parent="1" vertex="1">
          <mxGeometry x="145" y="70" width="130" height="50" as="geometry" />
        </mxCell>
        <mxCell id="EoDWGlJwhHmFgsUzuVPC-4" value="No" style="edgeStyle=orthogonalEdgeStyle;rounded=0;html=1;jettySize=auto;orthogonalLoop=1;fontSize=11;endArrow=block;endFill=0;endSize=8;strokeWidth=1;shadow=0;labelBackgroundColor=none;" parent="1" source="EoDWGlJwhHmFgsUzuVPC-5" target="EoDWGlJwhHmFgsUzuVPC-6" edge="1">
          <mxGeometry y="10" relative="1" as="geometry">
            <mxPoint as="offset" />
          </mxGeometry>
        </mxCell>
        <mxCell id="EoDWGlJwhHmFgsUzuVPC-29" style="edgeStyle=orthogonalEdgeStyle;rounded=0;orthogonalLoop=1;jettySize=auto;html=1;" parent="1" source="EoDWGlJwhHmFgsUzuVPC-5" target="EoDWGlJwhHmFgsUzuVPC-25" edge="1">
          <mxGeometry relative="1" as="geometry" />
        </mxCell>
        <mxCell id="EoDWGlJwhHmFgsUzuVPC-30" value="yes" style="edgeLabel;html=1;align=center;verticalAlign=middle;resizable=0;points=[];" parent="EoDWGlJwhHmFgsUzuVPC-29" vertex="1" connectable="0">
          <mxGeometry x="-0.0655" y="-15" relative="1" as="geometry">
            <mxPoint as="offset" />
          </mxGeometry>
        </mxCell>
        <mxCell id="EoDWGlJwhHmFgsUzuVPC-5" value="&lt;font size=&quot;1&quot;&gt;assistiu 100% do video?&lt;/font&gt;" style="rhombus;whiteSpace=wrap;html=1;shadow=0;fontFamily=Helvetica;fontSize=12;align=center;strokeWidth=1;spacing=6;spacingTop=-4;" parent="1" vertex="1">
          <mxGeometry x="150" y="170" width="120" height="100" as="geometry" />
        </mxCell>
        <mxCell id="EoDWGlJwhHmFgsUzuVPC-6" value="Não marcar como vista" style="rounded=1;whiteSpace=wrap;html=1;fontSize=12;glass=0;strokeWidth=1;shadow=0;" parent="1" vertex="1">
          <mxGeometry x="-50" y="190" width="140" height="60" as="geometry" />
        </mxCell>
        <mxCell id="EoDWGlJwhHmFgsUzuVPC-37" style="edgeStyle=orthogonalEdgeStyle;rounded=0;orthogonalLoop=1;jettySize=auto;html=1;entryX=0.5;entryY=0;entryDx=0;entryDy=0;" parent="1" source="EoDWGlJwhHmFgsUzuVPC-11" edge="1">
          <mxGeometry relative="1" as="geometry">
            <mxPoint x="215" y="389.9999999999999" as="targetPoint" />
          </mxGeometry>
        </mxCell>
        <mxCell id="EoDWGlJwhHmFgsUzuVPC-11" value="sistema&amp;nbsp;&lt;div&gt;exibir na tela botões de próxima&amp;nbsp; aula, pagina inicial e aula anterior&lt;/div&gt;" style="rounded=1;whiteSpace=wrap;html=1;fontSize=12;glass=0;strokeWidth=1;shadow=0;" parent="1" vertex="1">
          <mxGeometry x="145" y="295" width="140" height="50" as="geometry" />
        </mxCell>
        <mxCell id="EoDWGlJwhHmFgsUzuVPC-20" style="edgeStyle=orthogonalEdgeStyle;rounded=0;orthogonalLoop=1;jettySize=auto;html=1;entryX=0.5;entryY=0;entryDx=0;entryDy=0;" parent="1" source="EoDWGlJwhHmFgsUzuVPC-21" target="EoDWGlJwhHmFgsUzuVPC-2" edge="1">
          <mxGeometry relative="1" as="geometry" />
        </mxCell>
        <mxCell id="EoDWGlJwhHmFgsUzuVPC-21" value="" style="ellipse;shape=doubleEllipse;whiteSpace=wrap;html=1;aspect=fixed;fillColor=#000000;" parent="1" vertex="1">
          <mxGeometry x="192.25" width="35.5" height="35.5" as="geometry" />
        </mxCell>
        <mxCell id="EoDWGlJwhHmFgsUzuVPC-34" style="edgeStyle=orthogonalEdgeStyle;rounded=0;orthogonalLoop=1;jettySize=auto;html=1;entryX=1;entryY=0.5;entryDx=0;entryDy=0;" parent="1" source="EoDWGlJwhHmFgsUzuVPC-25" target="EoDWGlJwhHmFgsUzuVPC-11" edge="1">
          <mxGeometry relative="1" as="geometry">
            <Array as="points">
              <mxPoint x="410" y="320" />
            </Array>
          </mxGeometry>
        </mxCell>
        <mxCell id="EoDWGlJwhHmFgsUzuVPC-25" value="Marcar como vista" style="rounded=1;whiteSpace=wrap;html=1;fontSize=12;glass=0;strokeWidth=1;shadow=0;" parent="1" vertex="1">
          <mxGeometry x="340" y="190" width="140" height="60" as="geometry" />
        </mxCell>
        <mxCell id="EoDWGlJwhHmFgsUzuVPC-35" style="edgeStyle=orthogonalEdgeStyle;rounded=0;orthogonalLoop=1;jettySize=auto;html=1;entryX=0.01;entryY=0.659;entryDx=0;entryDy=0;entryPerimeter=0;" parent="1" source="EoDWGlJwhHmFgsUzuVPC-6" target="EoDWGlJwhHmFgsUzuVPC-11" edge="1">
          <mxGeometry relative="1" as="geometry">
            <Array as="points">
              <mxPoint x="10" y="328" />
            </Array>
          </mxGeometry>
        </mxCell>
        <mxCell id="LO50vDkvIUBGhmrnTDB7-1" value="" style="group" parent="1" vertex="1" connectable="0">
          <mxGeometry x="190" y="400" width="50" height="50" as="geometry" />
        </mxCell>
        <mxCell id="LO50vDkvIUBGhmrnTDB7-2" value="" style="ellipse;shape=doubleEllipse;whiteSpace=wrap;html=1;aspect=fixed;fillColor=#000000;" parent="LO50vDkvIUBGhmrnTDB7-1" vertex="1">
          <mxGeometry x="2.513966480446927" y="2.513966480446927" width="44.6927374301676" height="44.6927374301676" as="geometry" />
        </mxCell>
        <mxCell id="LO50vDkvIUBGhmrnTDB7-3" value="" style="ellipse;shape=doubleEllipse;whiteSpace=wrap;html=1;aspect=fixed;fillColor=none;" parent="LO50vDkvIUBGhmrnTDB7-1" vertex="1">
          <mxGeometry width="50" height="50" as="geometry" />
        </mxCell>
      </root>
    </mxGraphModel>
  </diagram>
  <diagram id="KesbPO_agnmy7RMnJhgr" name="Página-3">
    <mxGraphModel dx="1716" dy="482" grid="1" gridSize="10" guides="1" tooltips="1" connect="1" arrows="1" fold="1" page="1" pageScale="1" pageWidth="827" pageHeight="1169" math="0" shadow="0">
      <root>
        <mxCell id="0" />
        <mxCell id="1" parent="0" />
        <mxCell id="ii6buMx4UcgC3_YmsQ-Y-1" value="" style="rounded=0;html=1;jettySize=auto;orthogonalLoop=1;fontSize=11;endArrow=block;endFill=0;endSize=8;strokeWidth=1;shadow=0;labelBackgroundColor=none;edgeStyle=orthogonalEdgeStyle;" parent="1" source="ii6buMx4UcgC3_YmsQ-Y-2" target="ii6buMx4UcgC3_YmsQ-Y-6" edge="1">
          <mxGeometry relative="1" as="geometry" />
        </mxCell>
        <mxCell id="ii6buMx4UcgC3_YmsQ-Y-2" value="usuário pesquisa produto" style="rounded=1;whiteSpace=wrap;html=1;fontSize=12;glass=0;strokeWidth=1;shadow=0;" parent="1" vertex="1">
          <mxGeometry x="145" y="70" width="130" height="50" as="geometry" />
        </mxCell>
        <mxCell id="ii6buMx4UcgC3_YmsQ-Y-3" value="No" style="edgeStyle=orthogonalEdgeStyle;rounded=0;html=1;jettySize=auto;orthogonalLoop=1;fontSize=11;endArrow=block;endFill=0;endSize=8;strokeWidth=1;shadow=0;labelBackgroundColor=none;" parent="1" source="ii6buMx4UcgC3_YmsQ-Y-6" target="ii6buMx4UcgC3_YmsQ-Y-7" edge="1">
          <mxGeometry y="10" relative="1" as="geometry">
            <mxPoint as="offset" />
          </mxGeometry>
        </mxCell>
        <mxCell id="ii6buMx4UcgC3_YmsQ-Y-4" style="edgeStyle=orthogonalEdgeStyle;rounded=0;orthogonalLoop=1;jettySize=auto;html=1;" parent="1" source="ii6buMx4UcgC3_YmsQ-Y-6" target="ii6buMx4UcgC3_YmsQ-Y-13" edge="1">
          <mxGeometry relative="1" as="geometry" />
        </mxCell>
        <mxCell id="ii6buMx4UcgC3_YmsQ-Y-5" value="yes" style="edgeLabel;html=1;align=center;verticalAlign=middle;resizable=0;points=[];" parent="ii6buMx4UcgC3_YmsQ-Y-4" vertex="1" connectable="0">
          <mxGeometry x="-0.0655" y="-15" relative="1" as="geometry">
            <mxPoint as="offset" />
          </mxGeometry>
        </mxCell>
        <mxCell id="ii6buMx4UcgC3_YmsQ-Y-6" value="&lt;font size=&quot;1&quot;&gt;produto encontrado?&lt;/font&gt;" style="rhombus;whiteSpace=wrap;html=1;shadow=0;fontFamily=Helvetica;fontSize=12;align=center;strokeWidth=1;spacing=6;spacingTop=-4;" parent="1" vertex="1">
          <mxGeometry x="150" y="170" width="120" height="100" as="geometry" />
        </mxCell>
        <mxCell id="dlC4IHnwdqkUAIfrJtvb-4" style="edgeStyle=orthogonalEdgeStyle;rounded=0;orthogonalLoop=1;jettySize=auto;html=1;" edge="1" parent="1" source="ii6buMx4UcgC3_YmsQ-Y-7" target="ii6buMx4UcgC3_YmsQ-Y-28">
          <mxGeometry relative="1" as="geometry" />
        </mxCell>
        <mxCell id="ii6buMx4UcgC3_YmsQ-Y-7" value="asistema exibe mensagem que não foi possível encontrar&amp;nbsp;" style="rounded=1;whiteSpace=wrap;html=1;fontSize=12;glass=0;strokeWidth=1;shadow=0;" parent="1" vertex="1">
          <mxGeometry x="-50" y="190" width="140" height="60" as="geometry" />
        </mxCell>
        <mxCell id="ii6buMx4UcgC3_YmsQ-Y-10" style="edgeStyle=orthogonalEdgeStyle;rounded=0;orthogonalLoop=1;jettySize=auto;html=1;entryX=0.5;entryY=0;entryDx=0;entryDy=0;" parent="1" source="ii6buMx4UcgC3_YmsQ-Y-11" target="ii6buMx4UcgC3_YmsQ-Y-2" edge="1">
          <mxGeometry relative="1" as="geometry" />
        </mxCell>
        <mxCell id="ii6buMx4UcgC3_YmsQ-Y-11" value="" style="ellipse;shape=doubleEllipse;whiteSpace=wrap;html=1;aspect=fixed;fillColor=#000000;" parent="1" vertex="1">
          <mxGeometry x="192.25" width="35.5" height="35.5" as="geometry" />
        </mxCell>
        <mxCell id="dlC4IHnwdqkUAIfrJtvb-1" style="edgeStyle=orthogonalEdgeStyle;rounded=0;orthogonalLoop=1;jettySize=auto;html=1;" edge="1" parent="1" source="ii6buMx4UcgC3_YmsQ-Y-13" target="ii6buMx4UcgC3_YmsQ-Y-28">
          <mxGeometry relative="1" as="geometry">
            <Array as="points">
              <mxPoint x="410" y="450" />
            </Array>
          </mxGeometry>
        </mxCell>
        <mxCell id="ii6buMx4UcgC3_YmsQ-Y-13" value="sistema&amp;nbsp;&lt;div&gt;listar do mais barato ao mais caro com o link do site encontrado&lt;/div&gt;" style="rounded=1;whiteSpace=wrap;html=1;fontSize=12;glass=0;strokeWidth=1;shadow=0;" parent="1" vertex="1">
          <mxGeometry x="340" y="190" width="140" height="60" as="geometry" />
        </mxCell>
        <mxCell id="ii6buMx4UcgC3_YmsQ-Y-26" value="" style="group" parent="1" vertex="1" connectable="0">
          <mxGeometry y="415" width="50" height="50" as="geometry" />
        </mxCell>
        <mxCell id="ii6buMx4UcgC3_YmsQ-Y-27" value="" style="ellipse;shape=doubleEllipse;whiteSpace=wrap;html=1;aspect=fixed;fillColor=#000000;" parent="ii6buMx4UcgC3_YmsQ-Y-26" vertex="1">
          <mxGeometry x="2.513966480446927" y="2.513966480446927" width="44.6927374301676" height="44.6927374301676" as="geometry" />
        </mxCell>
        <mxCell id="ii6buMx4UcgC3_YmsQ-Y-28" value="" style="ellipse;shape=doubleEllipse;whiteSpace=wrap;html=1;aspect=fixed;fillColor=none;" parent="ii6buMx4UcgC3_YmsQ-Y-26" vertex="1">
          <mxGeometry width="50" height="50" as="geometry" />
        </mxCell>
      </root>
    </mxGraphModel>
  </diagram>
  <diagram id="BJe6I3r_5rHNhJLzymGg" name="Página-4">
    <mxGraphModel dx="889" dy="482" grid="1" gridSize="10" guides="1" tooltips="1" connect="1" arrows="1" fold="1" page="1" pageScale="1" pageWidth="827" pageHeight="1169" math="0" shadow="0">
      <root>
        <mxCell id="0" />
        <mxCell id="1" parent="0" />
        <mxCell id="C9XyE06ZuOsi1qVMS1Hs-1" value="&lt;span style=&quot;color: rgba(0, 0, 0, 0); font-family: monospace; font-size: 0px; text-align: start;&quot;&gt;%3CmxGraphModel%3E%3Croot%3E%3CmxCell%20id%3D%220%22%2F%3E%3CmxCell%20id%3D%221%22%20parent%3D%220%22%2F%3E%3CmxCell%20id%3D%222%22%20value%3D%22%22%20style%3D%22rounded%3D0%3Bhtml%3D1%3BjettySize%3Dauto%3BorthogonalLoop%3D1%3BfontSize%3D11%3BendArrow%3Dblock%3BendFill%3D0%3BendSize%3D8%3BstrokeWidth%3D1%3Bshadow%3D0%3BlabelBackgroundColor%3Dnone%3BedgeStyle%3DorthogonalEdgeStyle%3B%22%20edge%3D%221%22%20source%3D%223%22%20target%3D%227%22%20parent%3D%221%22%3E%3CmxGeometry%20relative%3D%221%22%20as%3D%22geometry%22%2F%3E%3C%2FmxCell%3E%3CmxCell%20id%3D%223%22%20value%3D%22usu%C3%A1rio%20pesquisa%20produto%22%20style%3D%22rounded%3D1%3BwhiteSpace%3Dwrap%3Bhtml%3D1%3BfontSize%3D12%3Bglass%3D0%3BstrokeWidth%3D1%3Bshadow%3D0%3B%22%20vertex%3D%221%22%20parent%3D%221%22%3E%3CmxGeometry%20x%3D%22145%22%20y%3D%2270%22%20width%3D%22130%22%20height%3D%2250%22%20as%3D%22geometry%22%2F%3E%3C%2FmxCell%3E%3CmxCell%20id%3D%224%22%20value%3D%22No%22%20style%3D%22edgeStyle%3DorthogonalEdgeStyle%3Brounded%3D0%3Bhtml%3D1%3BjettySize%3Dauto%3BorthogonalLoop%3D1%3BfontSize%3D11%3BendArrow%3Dblock%3BendFill%3D0%3BendSize%3D8%3BstrokeWidth%3D1%3Bshadow%3D0%3BlabelBackgroundColor%3Dnone%3B%22%20edge%3D%221%22%20source%3D%227%22%20target%3D%228%22%20parent%3D%221%22%3E%3CmxGeometry%20y%3D%2210%22%20relative%3D%221%22%20as%3D%22geometry%22%3E%3CmxPoint%20as%3D%22offset%22%2F%3E%3C%2FmxGeometry%3E%3C%2FmxCell%3E%3CmxCell%20id%3D%225%22%20style%3D%22edgeStyle%3DorthogonalEdgeStyle%3Brounded%3D0%3BorthogonalLoop%3D1%3BjettySize%3Dauto%3Bhtml%3D1%3B%22%20edge%3D%221%22%20source%3D%227%22%20target%3D%2214%22%20parent%3D%221%22%3E%3CmxGeometry%20relative%3D%221%22%20as%3D%22geometry%22%2F%3E%3C%2FmxCell%3E%3CmxCell%20id%3D%226%22%20value%3D%22yes%22%20style%3D%22edgeLabel%3Bhtml%3D1%3Balign%3Dcenter%3BverticalAlign%3Dmiddle%3Bresizable%3D0%3Bpoints%3D%5B%5D%3B%22%20vertex%3D%221%22%20connectable%3D%220%22%20parent%3D%225%22%3E%3CmxGeometry%20x%3D%22-0.0655%22%20y%3D%22-15%22%20relative%3D%221%22%20as%3D%22geometry%22%3E%3CmxPoint%20as%3D%22offset%22%2F%3E%3C%2FmxGeometry%3E%3C%2FmxCell%3E%3CmxCell%20id%3D%227%22%20value%3D%22%26lt%3Bfont%20size%3D%26quot%3B1%26quot%3B%26gt%3Bproduto%20encontrado%3F%26lt%3B%2Ffont%26gt%3B%22%20style%3D%22rhombus%3BwhiteSpace%3Dwrap%3Bhtml%3D1%3Bshadow%3D0%3BfontFamily%3DHelvetica%3BfontSize%3D12%3Balign%3Dcenter%3BstrokeWidth%3D1%3Bspacing%3D6%3BspacingTop%3D-4%3B%22%20vertex%3D%221%22%20parent%3D%221%22%3E%3CmxGeometry%20x%3D%22150%22%20y%3D%22170%22%20width%3D%22120%22%20height%3D%22100%22%20as%3D%22geometry%22%2F%3E%3C%2FmxCell%3E%3CmxCell%20id%3D%228%22%20value%3D%22exibe%20mensagem%20que%20n%C3%A3o%20foi%20poss%C3%ADvel%20encontrar%26amp%3Bnbsp%3B%22%20style%3D%22rounded%3D1%3BwhiteSpace%3Dwrap%3Bhtml%3D1%3BfontSize%3D12%3Bglass%3D0%3BstrokeWidth%3D1%3Bshadow%3D0%3B%22%20vertex%3D%221%22%20parent%3D%221%22%3E%3CmxGeometry%20x%3D%22-50%22%20y%3D%22190%22%20width%3D%22140%22%20height%3D%2260%22%20as%3D%22geometry%22%2F%3E%3C%2FmxCell%3E%3CmxCell%20id%3D%229%22%20style%3D%22edgeStyle%3DorthogonalEdgeStyle%3Brounded%3D0%3BorthogonalLoop%3D1%3BjettySize%3Dauto%3Bhtml%3D1%3BentryX%3D0.5%3BentryY%3D0%3BentryDx%3D0%3BentryDy%3D0%3B%22%20edge%3D%221%22%20source%3D%2210%22%20target%3D%2219%22%20parent%3D%221%22%3E%3CmxGeometry%20relative%3D%221%22%20as%3D%22geometry%22%2F%3E%3C%2FmxCell%3E%3CmxCell%20id%3D%2210%22%20value%3D%22exibir%20na%20tela%20a%20barra%20de%20pesquisa%20para%20novas%20pesquisas%22%20style%3D%22rounded%3D1%3BwhiteSpace%3Dwrap%3Bhtml%3D1%3BfontSize%3D12%3Bglass%3D0%3BstrokeWidth%3D1%3Bshadow%3D0%3B%22%20vertex%3D%221%22%20parent%3D%221%22%3E%3CmxGeometry%20x%3D%22145%22%20y%3D%22295%22%20width%3D%22140%22%20height%3D%2250%22%20as%3D%22geometry%22%2F%3E%3C%2FmxCell%3E%3CmxCell%20id%3D%2211%22%20style%3D%22edgeStyle%3DorthogonalEdgeStyle%3Brounded%3D0%3BorthogonalLoop%3D1%3BjettySize%3Dauto%3Bhtml%3D1%3BentryX%3D0.5%3BentryY%3D0%3BentryDx%3D0%3BentryDy%3D0%3B%22%20edge%3D%221%22%20source%3D%2212%22%20target%3D%223%22%20parent%3D%221%22%3E%3CmxGeometry%20relative%3D%221%22%20as%3D%22geometry%22%2F%3E%3C%2FmxCell%3E%3CmxCell%20id%3D%2212%22%20value%3D%22%22%20style%3D%22ellipse%3Bshape%3DdoubleEllipse%3BwhiteSpace%3Dwrap%3Bhtml%3D1%3Baspect%3Dfixed%3BfillColor%3D%23000000%3B%22%20vertex%3D%221%22%20parent%3D%221%22%3E%3CmxGeometry%20x%3D%22192.25%22%20width%3D%2235.5%22%20height%3D%2235.5%22%20as%3D%22geometry%22%2F%3E%3C%2FmxCell%3E%3CmxCell%20id%3D%2213%22%20style%3D%22edgeStyle%3DorthogonalEdgeStyle%3Brounded%3D0%3BorthogonalLoop%3D1%3BjettySize%3Dauto%3Bhtml%3D1%3BentryX%3D1%3BentryY%3D0.5%3BentryDx%3D0%3BentryDy%3D0%3B%22%20edge%3D%221%22%20source%3D%2214%22%20target%3D%2210%22%20parent%3D%221%22%3E%3CmxGeometry%20relative%3D%221%22%20as%3D%22geometry%22%3E%3CArray%20as%3D%22points%22%3E%3CmxPoint%20x%3D%22410%22%20y%3D%22320%22%2F%3E%3C%2FArray%3E%3C%2FmxGeometry%3E%3C%2FmxCell%3E%3CmxCell%20id%3D%2214%22%20value%3D%22listar%20do%20mais%20barato%20ao%20mais%20caro%20com%20o%20link%20do%20site%20encontrado%22%20style%3D%22rounded%3D1%3BwhiteSpace%3Dwrap%3Bhtml%3D1%3BfontSize%3D12%3Bglass%3D0%3BstrokeWidth%3D1%3Bshadow%3D0%3B%22%20vertex%3D%221%22%20parent%3D%221%22%3E%3CmxGeometry%20x%3D%22340%22%20y%3D%22190%22%20width%3D%22140%22%20height%3D%2260%22%20as%3D%22geometry%22%2F%3E%3C%2FmxCell%3E%3CmxCell%20id%3D%2215%22%20style%3D%22edgeStyle%3DorthogonalEdgeStyle%3Brounded%3D0%3BorthogonalLoop%3D1%3BjettySize%3Dauto%3Bhtml%3D1%3BentryX%3D1%3BentryY%3D0.5%3BentryDx%3D0%3BentryDy%3D0%3B%22%20edge%3D%221%22%20source%3D%2219%22%20parent%3D%221%22%3E%3CmxGeometry%20relative%3D%221%22%20as%3D%22geometry%22%3E%3CmxPoint%20x%3D%2250%22%20y%3D%22440%22%20as%3D%22targetPoint%22%2F%3E%3C%2FmxGeometry%3E%3C%2FmxCell%3E%3CmxCell%20id%3D%2216%22%20value%3D%22No%22%20style%3D%22edgeLabel%3Bhtml%3D1%3Balign%3Dcenter%3BverticalAlign%3Dmiddle%3Bresizable%3D0%3Bpoints%3D%5B%5D%3B%22%20vertex%3D%221%22%20connectable%3D%220%22%20parent%3D%2215%22%3E%3CmxGeometry%20x%3D%220.0137%22%20y%3D%2215%22%20relative%3D%221%22%20as%3D%22geometry%22%3E%3CmxPoint%20as%3D%22offset%22%2F%3E%3C%2FmxGeometry%3E%3C%2FmxCell%3E%3CmxCell%20id%3D%2217%22%20style%3D%22edgeStyle%3DorthogonalEdgeStyle%3Brounded%3D0%3BorthogonalLoop%3D1%3BjettySize%3Dauto%3Bhtml%3D1%3BentryX%3D1%3BentryY%3D0.75%3BentryDx%3D0%3BentryDy%3D0%3B%22%20edge%3D%221%22%20source%3D%2219%22%20target%3D%223%22%20parent%3D%221%22%3E%3CmxGeometry%20relative%3D%221%22%20as%3D%22geometry%22%3E%3CArray%20as%3D%22points%22%3E%3CmxPoint%20x%3D%22570%22%20y%3D%22440%22%2F%3E%3CmxPoint%20x%3D%22570%22%20y%3D%22108%22%2F%3E%3C%2FArray%3E%3C%2FmxGeometry%3E%3C%2FmxCell%3E%3CmxCell%20id%3D%2218%22%20value%3D%22yes%22%20style%3D%22edgeLabel%3Bhtml%3D1%3Balign%3Dcenter%3BverticalAlign%3Dmiddle%3Bresizable%3D0%3Bpoints%3D%5B%5D%3B%22%20vertex%3D%221%22%20connectable%3D%220%22%20parent%3D%2217%22%3E%3CmxGeometry%20x%3D%22-0.8646%22%20y%3D%22-15%22%20relative%3D%221%22%20as%3D%22geometry%22%3E%3CmxPoint%20as%3D%22offset%22%2F%3E%3C%2FmxGeometry%3E%3C%2FmxCell%3E%3CmxCell%20id%3D%2219%22%20value%3D%22usu%C3%A1rio%20pesquisou%3F%22%20style%3D%22rhombus%3BwhiteSpace%3Dwrap%3Bhtml%3D1%3Bshadow%3D0%3BfontFamily%3DHelvetica%3BfontSize%3D12%3Balign%3Dcenter%3BstrokeWidth%3D1%3Bspacing%3D6%3BspacingTop%3D-4%3B%22%20vertex%3D%221%22%20parent%3D%221%22%3E%3CmxGeometry%20x%3D%22155%22%20y%3D%22390%22%20width%3D%22120%22%20height%3D%22100%22%20as%3D%22geometry%22%2F%3E%3C%2FmxCell%3E%3CmxCell%20id%3D%2220%22%20value%3D%22%22%20style%3D%22group%22%20vertex%3D%221%22%20connectable%3D%220%22%20parent%3D%221%22%3E%3CmxGeometry%20y%3D%22415%22%20width%3D%2250%22%20height%3D%2250%22%20as%3D%22geometry%22%2F%3E%3C%2FmxCell%3E%3CmxCell%20id%3D%2221%22%20value%3D%22%22%20style%3D%22ellipse%3Bshape%3DdoubleEllipse%3BwhiteSpace%3Dwrap%3Bhtml%3D1%3Baspect%3Dfixed%3BfillColor%3D%23000000%3B%22%20vertex%3D%221%22%20parent%3D%2220%22%3E%3CmxGeometry%20x%3D%222.513966480446927%22%20y%3D%222.513966480446927%22%20width%3D%2244.6927374301676%22%20height%3D%2244.6927374301676%22%20as%3D%22geometry%22%2F%3E%3C%2FmxCell%3E%3CmxCell%20id%3D%2222%22%20value%3D%22%22%20style%3D%22ellipse%3Bshape%3DdoubleEllipse%3BwhiteSpace%3Dwrap%3Bhtml%3D1%3Baspect%3Dfixed%3BfillColor%3Dnone%3B%22%20vertex%3D%221%22%20parent%3D%2220%22%3E%3CmxGeometry%20width%3D%2250%22%20height%3D%2250%22%20as%3D%22geometry%22%2F%3E%3C%2FmxCell%3E%3C%2Froot%3E%3C%2FmxGraphModel%3E&lt;/span&gt;" style="text;html=1;align=center;verticalAlign=middle;resizable=0;points=[];autosize=1;strokeColor=none;fillColor=none;" parent="1" vertex="1">
          <mxGeometry x="260" y="678" width="20" height="30" as="geometry" />
        </mxCell>
        <mxCell id="C9XyE06ZuOsi1qVMS1Hs-2" value="" style="rounded=0;html=1;jettySize=auto;orthogonalLoop=1;fontSize=11;endArrow=block;endFill=0;endSize=8;strokeWidth=1;shadow=0;labelBackgroundColor=none;edgeStyle=orthogonalEdgeStyle;" parent="1" source="C9XyE06ZuOsi1qVMS1Hs-3" target="C9XyE06ZuOsi1qVMS1Hs-14" edge="1">
          <mxGeometry relative="1" as="geometry">
            <mxPoint x="210" y="170" as="targetPoint" />
          </mxGeometry>
        </mxCell>
        <mxCell id="C9XyE06ZuOsi1qVMS1Hs-3" value="sistema exibe campo para digitar um email de solicitação de consultoria é exibido" style="rounded=1;whiteSpace=wrap;html=1;fontSize=12;glass=0;strokeWidth=1;shadow=0;" parent="1" vertex="1">
          <mxGeometry x="145" y="70" width="130" height="50" as="geometry" />
        </mxCell>
        <mxCell id="C9XyE06ZuOsi1qVMS1Hs-11" style="edgeStyle=orthogonalEdgeStyle;rounded=0;orthogonalLoop=1;jettySize=auto;html=1;entryX=0.5;entryY=0;entryDx=0;entryDy=0;" parent="1" source="C9XyE06ZuOsi1qVMS1Hs-12" target="C9XyE06ZuOsi1qVMS1Hs-3" edge="1">
          <mxGeometry relative="1" as="geometry" />
        </mxCell>
        <mxCell id="C9XyE06ZuOsi1qVMS1Hs-12" value="" style="ellipse;shape=doubleEllipse;whiteSpace=wrap;html=1;aspect=fixed;fillColor=#000000;" parent="1" vertex="1">
          <mxGeometry x="192.25" width="35.5" height="35.5" as="geometry" />
        </mxCell>
        <mxCell id="C9XyE06ZuOsi1qVMS1Hs-25" style="edgeStyle=orthogonalEdgeStyle;rounded=0;orthogonalLoop=1;jettySize=auto;html=1;entryX=1;entryY=1;entryDx=0;entryDy=0;" parent="1" source="C9XyE06ZuOsi1qVMS1Hs-14" edge="1">
          <mxGeometry relative="1" as="geometry">
            <mxPoint x="427.67766952965985" y="442.67766952965997" as="targetPoint" />
            <Array as="points">
              <mxPoint x="520" y="220" />
              <mxPoint x="520" y="443" />
            </Array>
          </mxGeometry>
        </mxCell>
        <mxCell id="C9XyE06ZuOsi1qVMS1Hs-14" value="sistema envia o e-mail" style="rounded=1;whiteSpace=wrap;html=1;fontSize=12;glass=0;strokeWidth=1;shadow=0;" parent="1" vertex="1">
          <mxGeometry x="145" y="190" width="140" height="60" as="geometry" />
        </mxCell>
        <mxCell id="C9XyE06ZuOsi1qVMS1Hs-26" value="" style="group" parent="1" vertex="1" connectable="0">
          <mxGeometry x="380" y="420" width="50" height="50" as="geometry" />
        </mxCell>
        <mxCell id="C9XyE06ZuOsi1qVMS1Hs-27" value="" style="ellipse;shape=doubleEllipse;whiteSpace=wrap;html=1;aspect=fixed;fillColor=#000000;" parent="C9XyE06ZuOsi1qVMS1Hs-26" vertex="1">
          <mxGeometry x="2.513966480446927" y="2.513966480446927" width="44.6927374301676" height="44.6927374301676" as="geometry" />
        </mxCell>
        <mxCell id="C9XyE06ZuOsi1qVMS1Hs-28" value="" style="ellipse;shape=doubleEllipse;whiteSpace=wrap;html=1;aspect=fixed;fillColor=none;" parent="C9XyE06ZuOsi1qVMS1Hs-26" vertex="1">
          <mxGeometry width="50" height="50" as="geometry" />
        </mxCell>
      </root>
    </mxGraphModel>
  </diagram>
  <diagram id="y11R_a8jMYxkMDoq1sAF" name="Página-5">
    <mxGraphModel dx="1375" dy="745" grid="1" gridSize="10" guides="1" tooltips="1" connect="1" arrows="1" fold="1" page="1" pageScale="1" pageWidth="827" pageHeight="1169" math="0" shadow="0">
      <root>
        <mxCell id="0" />
        <mxCell id="1" parent="0" />
      </root>
    </mxGraphModel>
  </diagram>
  <diagram id="eHq-HhKBoZzMvTQ_e0Cy" name="Página-6">
    <mxGraphModel dx="889" dy="482" grid="1" gridSize="10" guides="1" tooltips="1" connect="1" arrows="1" fold="1" page="1" pageScale="1" pageWidth="827" pageHeight="1169" math="0" shadow="0">
      <root>
        <mxCell id="0" />
        <mxCell id="1" parent="0" />
        <mxCell id="WxDwKpVlbtCaOeEXnEm8-4" style="edgeStyle=orthogonalEdgeStyle;rounded=0;orthogonalLoop=1;jettySize=auto;html=1;entryX=0.5;entryY=0;entryDx=0;entryDy=0;" edge="1" parent="1" source="nVFC7ptHcaLcNRQE-2P9-2" target="nVFC7ptHcaLcNRQE-2P9-6">
          <mxGeometry relative="1" as="geometry" />
        </mxCell>
        <mxCell id="nVFC7ptHcaLcNRQE-2P9-2" value="sistema exibe questionario" style="rounded=1;whiteSpace=wrap;html=1;fontSize=12;glass=0;strokeWidth=1;shadow=0;" parent="1" vertex="1">
          <mxGeometry x="145" y="70" width="130" height="50" as="geometry" />
        </mxCell>
        <mxCell id="nVFC7ptHcaLcNRQE-2P9-4" style="edgeStyle=orthogonalEdgeStyle;rounded=0;orthogonalLoop=1;jettySize=auto;html=1;" parent="1" source="nVFC7ptHcaLcNRQE-2P9-6" target="nVFC7ptHcaLcNRQE-2P9-13" edge="1">
          <mxGeometry relative="1" as="geometry" />
        </mxCell>
        <mxCell id="nVFC7ptHcaLcNRQE-2P9-5" value="yes" style="edgeLabel;html=1;align=center;verticalAlign=middle;resizable=0;points=[];" parent="nVFC7ptHcaLcNRQE-2P9-4" vertex="1" connectable="0">
          <mxGeometry x="-0.0655" y="-15" relative="1" as="geometry">
            <mxPoint as="offset" />
          </mxGeometry>
        </mxCell>
        <mxCell id="WxDwKpVlbtCaOeEXnEm8-2" style="edgeStyle=orthogonalEdgeStyle;rounded=0;orthogonalLoop=1;jettySize=auto;html=1;entryX=0.5;entryY=0;entryDx=0;entryDy=0;" edge="1" parent="1" source="nVFC7ptHcaLcNRQE-2P9-6" target="nVFC7ptHcaLcNRQE-2P9-21">
          <mxGeometry relative="1" as="geometry" />
        </mxCell>
        <mxCell id="WxDwKpVlbtCaOeEXnEm8-3" value="no&lt;div&gt;&lt;br&gt;&lt;/div&gt;" style="edgeLabel;html=1;align=center;verticalAlign=middle;resizable=0;points=[];" vertex="1" connectable="0" parent="WxDwKpVlbtCaOeEXnEm8-2">
          <mxGeometry x="-0.5827" y="-1" relative="1" as="geometry">
            <mxPoint as="offset" />
          </mxGeometry>
        </mxCell>
        <mxCell id="nVFC7ptHcaLcNRQE-2P9-6" value="&lt;font size=&quot;1&quot;&gt;questionário completo?&lt;/font&gt;" style="rhombus;whiteSpace=wrap;html=1;shadow=0;fontFamily=Helvetica;fontSize=12;align=center;strokeWidth=1;spacing=6;spacingTop=-4;" parent="1" vertex="1">
          <mxGeometry x="150" y="170" width="120" height="100" as="geometry" />
        </mxCell>
        <mxCell id="nVFC7ptHcaLcNRQE-2P9-10" style="edgeStyle=orthogonalEdgeStyle;rounded=0;orthogonalLoop=1;jettySize=auto;html=1;entryX=0.5;entryY=0;entryDx=0;entryDy=0;" parent="1" source="nVFC7ptHcaLcNRQE-2P9-11" target="nVFC7ptHcaLcNRQE-2P9-2" edge="1">
          <mxGeometry relative="1" as="geometry" />
        </mxCell>
        <mxCell id="nVFC7ptHcaLcNRQE-2P9-11" value="" style="ellipse;shape=doubleEllipse;whiteSpace=wrap;html=1;aspect=fixed;fillColor=#000000;" parent="1" vertex="1">
          <mxGeometry x="192.25" width="35.5" height="35.5" as="geometry" />
        </mxCell>
        <mxCell id="WxDwKpVlbtCaOeEXnEm8-1" style="edgeStyle=orthogonalEdgeStyle;rounded=0;orthogonalLoop=1;jettySize=auto;html=1;" edge="1" parent="1" source="nVFC7ptHcaLcNRQE-2P9-13" target="nVFC7ptHcaLcNRQE-2P9-21">
          <mxGeometry relative="1" as="geometry">
            <Array as="points">
              <mxPoint x="410" y="380" />
            </Array>
          </mxGeometry>
        </mxCell>
        <mxCell id="nVFC7ptHcaLcNRQE-2P9-13" value="sistema exibe resultado&amp;nbsp;" style="rounded=1;whiteSpace=wrap;html=1;fontSize=12;glass=0;strokeWidth=1;shadow=0;" parent="1" vertex="1">
          <mxGeometry x="340" y="190" width="140" height="60" as="geometry" />
        </mxCell>
        <mxCell id="nVFC7ptHcaLcNRQE-2P9-19" value="" style="group" parent="1" vertex="1" connectable="0">
          <mxGeometry x="190" y="340" width="50" height="50" as="geometry" />
        </mxCell>
        <mxCell id="nVFC7ptHcaLcNRQE-2P9-20" value="" style="ellipse;shape=doubleEllipse;whiteSpace=wrap;html=1;aspect=fixed;fillColor=#000000;" parent="nVFC7ptHcaLcNRQE-2P9-19" vertex="1">
          <mxGeometry x="2.513966480446927" y="2.513966480446927" width="44.6927374301676" height="44.6927374301676" as="geometry" />
        </mxCell>
        <mxCell id="nVFC7ptHcaLcNRQE-2P9-21" value="" style="ellipse;shape=doubleEllipse;whiteSpace=wrap;html=1;aspect=fixed;fillColor=none;" parent="nVFC7ptHcaLcNRQE-2P9-19" vertex="1">
          <mxGeometry width="50" height="50" as="geometry" />
        </mxCell>
      </root>
    </mxGraphModel>
  </diagram>
  <diagram id="fmnkWoqhtILp3O1wU-2f" name="Página-7">
    <mxGraphModel dx="756" dy="410" grid="1" gridSize="10" guides="1" tooltips="1" connect="1" arrows="1" fold="1" page="1" pageScale="1" pageWidth="827" pageHeight="1169" math="0" shadow="0">
      <root>
        <mxCell id="0" />
        <mxCell id="1" parent="0" />
        <mxCell id="wq-48xAG2DnC29XBmDz8-1" value="" style="rounded=0;html=1;jettySize=auto;orthogonalLoop=1;fontSize=11;endArrow=block;endFill=0;endSize=8;strokeWidth=1;shadow=0;labelBackgroundColor=none;edgeStyle=orthogonalEdgeStyle;" parent="1" source="wq-48xAG2DnC29XBmDz8-2" edge="1">
          <mxGeometry relative="1" as="geometry">
            <mxPoint x="210" y="170" as="targetPoint" />
          </mxGeometry>
        </mxCell>
        <mxCell id="wq-48xAG2DnC29XBmDz8-2" value="usuário entra no sistema" style="rounded=1;whiteSpace=wrap;html=1;fontSize=12;glass=0;strokeWidth=1;shadow=0;" parent="1" vertex="1">
          <mxGeometry x="145" y="70" width="130" height="50" as="geometry" />
        </mxCell>
        <mxCell id="wq-48xAG2DnC29XBmDz8-9" value="exibir na tela a barra de pesquisa para novas pesquisas" style="rounded=1;whiteSpace=wrap;html=1;fontSize=12;glass=0;strokeWidth=1;shadow=0;" parent="1" vertex="1">
          <mxGeometry x="750" y="330" width="140" height="50" as="geometry" />
        </mxCell>
        <mxCell id="wq-48xAG2DnC29XBmDz8-10" style="edgeStyle=orthogonalEdgeStyle;rounded=0;orthogonalLoop=1;jettySize=auto;html=1;entryX=0.5;entryY=0;entryDx=0;entryDy=0;" parent="1" source="wq-48xAG2DnC29XBmDz8-11" target="wq-48xAG2DnC29XBmDz8-2" edge="1">
          <mxGeometry relative="1" as="geometry" />
        </mxCell>
        <mxCell id="wq-48xAG2DnC29XBmDz8-11" value="" style="ellipse;shape=doubleEllipse;whiteSpace=wrap;html=1;aspect=fixed;fillColor=#000000;" parent="1" vertex="1">
          <mxGeometry x="192.25" width="35.5" height="35.5" as="geometry" />
        </mxCell>
        <mxCell id="wq-48xAG2DnC29XBmDz8-19" value="" style="group" parent="1" vertex="1" connectable="0">
          <mxGeometry x="170" y="270" width="50" height="50" as="geometry" />
        </mxCell>
        <mxCell id="wq-48xAG2DnC29XBmDz8-20" value="" style="ellipse;shape=doubleEllipse;whiteSpace=wrap;html=1;aspect=fixed;fillColor=#000000;" parent="wq-48xAG2DnC29XBmDz8-19" vertex="1">
          <mxGeometry x="2.513966480446927" y="2.513966480446927" width="44.6927374301676" height="44.6927374301676" as="geometry" />
        </mxCell>
        <mxCell id="wq-48xAG2DnC29XBmDz8-21" value="" style="ellipse;shape=doubleEllipse;whiteSpace=wrap;html=1;aspect=fixed;fillColor=none;" parent="wq-48xAG2DnC29XBmDz8-19" vertex="1">
          <mxGeometry width="50" height="50" as="geometry" />
        </mxCell>
        <mxCell id="k5ZuqzKEoUmxhMTkbICo-1" value="sistema mostra pontos ganhos&amp;nbsp;&lt;div&gt;&lt;br&gt;&lt;/div&gt;" style="rounded=1;whiteSpace=wrap;html=1;fontSize=12;glass=0;strokeWidth=1;shadow=0;" vertex="1" parent="1">
          <mxGeometry x="140" y="170" width="130" height="50" as="geometry" />
        </mxCell>
        <mxCell id="k5ZuqzKEoUmxhMTkbICo-2" style="edgeStyle=orthogonalEdgeStyle;rounded=0;orthogonalLoop=1;jettySize=auto;html=1;entryX=0.695;entryY=0.067;entryDx=0;entryDy=0;entryPerimeter=0;" edge="1" parent="1" source="k5ZuqzKEoUmxhMTkbICo-1" target="wq-48xAG2DnC29XBmDz8-21">
          <mxGeometry relative="1" as="geometry" />
        </mxCell>
      </root>
    </mxGraphModel>
  </diagram>
</mxfile>
